<?xml version="1.0" encoding="utf-8"?>
<!-- Generator: Adobe Illustrator 16.0.0, SVG Export Plug-In . SVG Version: 6.00 Build 0)  -->
<!DOCTYPE svg PUBLIC "-//W3C//DTD SVG 1.1//EN" "http://www.w3.org/Graphics/SVG/1.1/DTD/svg11.dtd">
<svg version="1.1" id="Layer_1" xmlns="http://www.w3.org/2000/svg" xmlns:xlink="http://www.w3.org/1999/xlink" x="0px" y="0px"
	 width="145px" height="145px" viewBox="0 0 145 145" enable-background="new 0 0 145 145" xml:space="preserve">
<g>
	<g>
		<rect fill="#CBCBCB" width="145" height="145"/>
	</g>
	<g id="layer1" transform="matrix(1.0488323,0,0,1,-5.6511307,-963.98203)">
		<path id="path5" inkscape:connector-curvature="0" fill="#010101" d="M12.18,1048.865"/>
		<path id="path13" inkscape:connector-curvature="0" fill="#F9F9FA" d="M43.084,1053.027
			c-19.986,0.082-37.606,35.246-37.537,56.781c0,0,103.477,0.062,136.024,0c0.031-19.98-16.795-56.664-38.681-56.568
			L43.084,1053.027z"/>
		<path id="path15" inkscape:connector-curvature="0" fill="#F9F9FA" d="M73.193,1044.648c15.625,0.09,28.36-13.533,28.428-30.42
			c-0.068-16.73-12.803-30.352-28.428-30.417c-15.786,0.065-28.522,13.687-28.419,30.413
			C44.671,1031.115,57.406,1044.734,73.193,1044.648L73.193,1044.648L73.193,1044.648z"/>
		<path id="path17" inkscape:connector-curvature="0" fill="#010101" d="M55.211,1043.201"/>
	</g>
</g>
</svg>
