<svg xmlns="http://www.w3.org/2000/svg" viewBox="0 0 60 60" height="60mm" width="60mm"><path d="M27.08 56.745c-3.085-.337-6.612-1.36-9.213-2.673C6.556 48.362.823 35.601 4.082 23.385c1.517-5.687 5.049-10.897 9.74-14.372.636-.47 1.156-.913 1.156-.983 0-.07-.231-.433-.514-.808-.825-1.093-1.121-1.769-1.04-2.374.095-.707.221-.802.766-.576.25.104 1.574.472 2.942.818l2.485.63.903-.362c.497-.199 1.686-.562 2.643-.808 8.083-2.071 16.716-.21 23.192 4.998 9.287 7.47 12.488 20.137 7.853 31.074-1.384 3.265-3.198 5.935-5.768 8.488-.886.88-2.15 2-2.809 2.488-3.375 2.5-7.728 4.326-11.807 4.953-1.675.257-5.227.359-6.744.194zm7.447-1.435c1.893-.393 2.86-.66 4.256-1.179C47.622 50.85 53.74 43.35 55.232 33.966c.29-1.822.283-5.55-.013-7.336-1.54-9.283-7.586-16.721-16.34-20.102-5.095-1.967-11.212-2.192-16.62-.61l-1.164.34.445.302.444.303 1.449-.389c2.219-.595 3.845-.79 6.616-.79 3.944 0 6.998.53 9.208 1.595 1.076.52 2.185 1.496 2.185 1.924-1.695.26-3.701-.245-5.552.848-2.623 1.007-3.287 1.23-3.934 1.324-.564.08-.687.146-.687.363 0 .4.605.31 3.075-.454 2.487-.77 4.075-1.077 5.569-1.077 1.09 0 1.914.26 2.035.642-5.491 3.084-13.322 9.217-17.547 4.626-.99-1.076-1.503-2.801-.846-4.663.18-.508.302-.947.272-.977-4.192 6.509 1.366 8.451 5.576 8.753-2.253 2.063-1.137.997-2.578 2.181-1.137.95-2.322.468-2.524-1.028-.057-.425-.194-.862-.305-.973-.179-.179-.217-.118-.354.562-.213 1.062-.192 1.448.11 2.04.323.634.807 1.026 1.495 1.212.699.188 1.23.063 2.035-.48.605-.407 1.63-.858 1.953-.858.07 0-.542.52-1.36 1.156-2.058 1.6-5.146 4.258-6.048 5.204-.413.435-1.05.952-1.413 1.15-1.76.958-3.22-.034-2.58-1.75.185-.492.573-.966 1.683-2.05.823-.804 1.529-1.616 1.644-1.89.261-.627.256-1.59-.012-2.126-.215-.428-2.42-2.753-2.61-2.753-.266 0-.063 1.017.376 1.889.53 1.053.597 1.66.244 2.2-.13.197-.719.841-1.31 1.433-1.284 1.283-1.806 2.174-1.904 3.249-.086.95.312 1.93 1.16 2.849 1.173 1.273 2.478 1.487 4.104.673.996-.498 1.552-.956 3.948-3.253 1.527-1.463 3.71-3.334 4.193-3.592 1.02-.546-.143.907-3.236 4.04-2.655 2.69-3.018 3.2-3.307 4.646-.41 2.052.723 4.365 2.636 5.38 2.169 1.152 4.506.762 6.25-1.042.894-.924 1.702-1.45 2.23-1.45.205 0 .805.24 1.335.532.627.346 1.133.532 1.446.532.266 0 .483-.038.483-.084 0-.17-1.807-2.098-2.304-2.458a3.024 3.024 0 00-1.112-.46c-.985-.148-1.518.103-2.873 1.355-1.504 1.39-1.968 1.647-2.973 1.647a3.127 3.127 0 01-3.142-3.142c-.003-1.048.405-1.634 2.23-3.208a64.234 64.234 0 002.66-2.43l1.064-1.055-.047.67c-.077 1.12.07 1.555.766 2.25.804.805 1.488.985 2.905.766.53-.082.964-.188.964-.237 0-.233-.53-.515-1.13-.6-.88-.127-1.353-.382-1.668-.9-.478-.783-.316-1.373.694-2.526l.442-.506.79 1.204c.922 1.409 2.573 3.114 3.798 3.925 1.968 1.303 4.234 2.223 8.059 3.27 1.727.473 2.886.875 3.71 1.289 2.227 1.118 3.523 2.081 3.524 2.62-2.479 8.403-9.498 14.102-15.937 16.035-5.102 1.706-10.279 1.681-15.555-.074-4.281-1.425-7.625-3.49-10.465-6.464-.954-1-1.434-1.596-3.137-3.905-1.765-2.392-3.431-6.964-3.85-10.561-.224-1.934-.102-5.278.26-7.09.552-2.755 1.877-5.967 3.46-8.382 1.372-2.095 3.546-4.54 5.507-6.196.934-.788 1.54-1.536 1.378-1.699-.118-.118-2.304 1.614-3.522 2.793-8.003 7.74-9.973 19.66-4.888 29.581 3.82 7.453 10.83 12.444 19.354 13.78 1.833.288 6.647.19 8.378-.169zm19.247-20.446c-.35-.19-2.928-1.21-7.345-2.91-2.502-.962-5.94-2.622-7.25-3.501-2.401-1.61-3.456-3.414-3.672-6.278-.04-.549-.018-1.145.051-1.324.115-.3.15-.254.416.546.16.48.463 1.144.672 1.475.718 1.132 2.416 2.615 3.816 3.335.779.4 3.962 1.434 7.854 2.552 2.134.613 4.903.433 5.266.589.855.648 1.134 5.101.645 5.721-.047-.003-.25-.095-.453-.205zm-3.887-7.693c-5.623-1.16-9.33-2.131-10.307-2.701-.987-.576-1.96-1.595-2.425-2.539-.376-.764-.432-1.023-.477-2.206-.055-1.46.054-1.554.437-.374 1.181 3.64 6.75 5.308 9.123 2.733.717-.778 1.081-1.63 1.159-2.714.1-1.401-.426-2.558-1.368-3.007-.73-.348-.861-.199-.771.872.067.804.04.977-.204 1.32-.374.525-1.074.85-1.604.743-.232-.046-.589-.281-.812-.536-.316-.36-.398-.576-.398-1.053 0-1.523 1.355-2.45 3.584-2.45 1.827 0 3.269.61 4.484 1.895 2.291 3.061 3.47 7.063 3.803 10.606-1.334-.056-3.153-.37-4.224-.59z" fill="#000002"/></svg>